#Cube.027.obj

v 0.0001136716 0.001582939 0.002023507
v 0.0001136688 -0.003299793 0.002023507
v -0.0001136717 -0.003299784 0.002023507
v -0.0001136706 0.001780139 0.002023507
v 0.0001136716 0.001582939 0.002023507
v -0.0001136706 0.001780139 0.002023507
v -0.0001136693 0.00502524 -0.002191806
v 0.0001136724 0.004810834 -0.002169454
v -0.0001136693 0.00502524 -0.002191806
v -0.0001136706 0.001780139 0.002023507
v -0.0001136717 -0.003299784 0.002023507
v -0.0001136712 -0.003299784 -0.00187346
v -0.0001136712 -0.003299784 -0.00187346
v 0.0001136701 -0.003299792 -0.001859306
v 0.0001136724 0.004810834 -0.002169454
v -0.0001136693 0.00502524 -0.002191806
v 0.0001136701 -0.003299792 -0.001859306
v 0.0001136688 -0.003299793 0.002023507
v 0.0001136716 0.001582939 0.002023507
v 0.0001136724 0.004810834 -0.002169454
v -0.0001136712 -0.003299784 -0.00187346
v -0.0001136717 -0.003299784 0.002023507
v 0.0001136688 -0.003299793 0.002023507
v 0.0001136701 -0.003299792 -0.001859306

vn 0 0 1
vn 0 0 1
vn 0 0 1
vn 0 0 1
vn 0.697022 0.1830221 0.6932987
vn -0.4389921 0.5145581 0.7365568
vn -0.2855661 0.8891093 -0.3576824
vn 0.7729303 0.4443906 -0.452875
vn -1 2.178904E-07 -1.309935E-07
vn -1 2.178904E-07 -1.309935E-07
vn -1 2.178904E-07 -1.309935E-07
vn -1 2.178904E-07 -1.309935E-07
vn -0.5629892 -0.5843222 -0.5844747
vn 0.5950165 -0.5902858 -0.5454521
vn 0.7729303 0.4443906 -0.452875
vn -0.2855661 0.8891093 -0.3576824
vn 1 -3.907009E-07 1.046301E-07
vn 1 -3.907009E-07 1.046301E-07
vn 1 -3.907009E-07 1.046301E-07
vn 1 -3.907009E-07 1.046301E-07
vn -3.932251E-05 -1 0
vn -3.932251E-05 -1 0
vn -3.932251E-05 -1 0
vn -3.932251E-05 -1 0

vt 0 0
vt 0 0
vt 0 0
vt 0 0
vt 0.6038245 0.303287
vt 0.598049 0.3029133
vt 0.5511873 0.3938516
vt 0.5572113 0.3937432
vt 0 0
vt 0 0
vt 0 0
vt 0 0
vt 0.5836667 0.303283
vt 0.591229 0.3066666
vt 0.4700134 0.5758431
vt 0.4592468 0.5795749
vt 0 0
vt 0 0
vt 0 0
vt 0 0
vt 0 0
vt 0 0
vt 0 0
vt 0 0

g Cube.027
usemtl Cube.027
usemap Cube.027
f 1/1/1 3/3/3 2/2/2
f 1/1/1 4/4/4 3/3/3
f 5/5/5 7/7/7 6/6/6
f 5/5/5 8/8/8 7/7/7
f 9/9/9 11/11/11 10/10/10
f 9/9/9 12/12/12 11/11/11
f 13/13/13 15/15/15 14/14/14
f 13/13/13 16/16/16 15/15/15
f 17/17/17 19/19/19 18/18/18
f 17/17/17 20/20/20 19/19/19
f 21/21/21 23/23/23 22/22/22
f 21/21/21 24/24/24 23/23/23
