#Cube.036.obj

v -0.0001136722 -0.0007045935 0.004529848
v -0.0001136714 -0.002305889 -0.003215497
v -0.0001136698 0.001662583 -0.008370451
v -0.0001136721 -0.0003766444 0.004558997
v -0.0001136714 0.001662582 0.002851847
v -0.0001136714 0.001662582 0.002851847
v -0.0001136698 0.001662583 -0.008370451
v 0.0001136703 0.00166258 -0.008626601
v 0.000113673 0.001662577 0.002779295
v -0.0001136721 -0.0003766444 0.004558997
v -0.0001136714 0.001662582 0.002851847
v 0.000113673 0.001662577 0.002779295
v 0.0001136722 -0.0004214036 0.004523912
v 0.0001136703 0.00166258 -0.008626601
v 0.0001136693 -0.002252977 -0.003540382
v 0.0001136721 -0.0005888163 0.004509031
v 0.0001136722 -0.0004214036 0.004523912
v 0.000113673 0.001662577 0.002779295
v 0.0001136693 -0.002252977 -0.003540382
v 0.0001136703 0.00166258 -0.008626601
v -0.0001136698 0.001662583 -0.008370451
v -0.0001136714 -0.002305889 -0.003215497
v 0.0001136721 -0.0005888163 0.004509031
v 0.0001136693 -0.002252977 -0.003540382
v -0.0001136714 -0.002305889 -0.003215497
v -0.0001136722 -0.0007045935 0.004529848
v -0.0001136722 -0.0007045935 0.004529848
v -0.0001136721 -0.0003766444 0.004558997
v 0.0001136722 -0.0004214036 0.004523912
v 0.0001136721 -0.0005888163 0.004509031

vn -1 2.096932E-07 -1.484509E-07
vn -1 2.096932E-07 -1.484509E-07
vn -1 2.096932E-07 -1.484509E-07
vn -1 2.096932E-07 -1.484509E-07
vn -1 2.096932E-07 -1.484509E-07
vn 1.846687E-05 1 1.538824E-07
vn 1.846687E-05 1 1.538824E-07
vn 1.846687E-05 1 1.538824E-07
vn 1.846687E-05 1 1.538824E-07
vn -0.5508359 0.2747618 0.7880899
vn -0.5639749 0.7214873 0.4017317
vn 0.6639836 0.7003629 0.2619494
vn 0.7029762 0.1883332 0.6858245
vn 1 -5.589251E-07 -2.380059E-07
vn 1 -5.589251E-07 -2.380059E-07
vn 1 -5.589251E-07 -2.380059E-07
vn 1 -5.589251E-07 -2.380059E-07
vn 1 -5.589251E-07 -2.380059E-07
vn 0.4610205 -0.7947766 -0.3947026
vn 0.2510207 0.228467 -0.9406335
vn -0.7903525 0.4047744 -0.4598919
vn -0.5174854 -0.8554868 0.01873886
vn 0.7199133 -0.3869812 0.5761687
vn 0.4610205 -0.7947766 -0.3947026
vn -0.5174854 -0.8554868 0.01873886
vn -0.4385905 -0.6557341 0.6145332
vn -0.4385905 -0.6557341 0.6145332
vn -0.5508359 0.2747618 0.7880899
vn 0.7029762 0.1883332 0.6858245
vn 0.7199133 -0.3869812 0.5761687

vt 0 0
vt 0 0
vt 0 0
vt 0 0
vt 0 0
vt 0 0
vt 0 0
vt 0 0
vt 0 0
vt 0.5280219 0.5350314
vt 0.5629306 0.5736923
vt 0.5669443 0.571297
vt 0.5312694 0.5317877
vt 0 0
vt 0 0
vt 0 0
vt 0 0
vt 0 0
vt 0.4420634 0.6171956
vt 0.3855198 0.7269223
vt 0.382592 0.7210225
vt 0.4398997 0.609813
vt 0.5262454 0.4225941
vt 0.4591455 0.652775
vt 0.4544877 0.642076
vt 0.5190527 0.4205902
vt 0.5469627 0.5088853
vt 0.5533487 0.5097822
vt 0.5530487 0.505202
vt 0.5497888 0.5047442

g Cube.036
usemtl Cube.036
usemap Cube.036
f 1/1/1 3/3/3 2/2/2
f 3/3/3 1/1/1 4/4/4
f 3/3/3 4/4/4 5/5/5
f 6/6/6 8/8/8 7/7/7
f 6/6/6 9/9/9 8/8/8
f 10/10/10 12/12/12 11/11/11
f 10/10/10 13/13/13 12/12/12
f 14/14/14 16/16/16 15/15/15
f 16/16/16 14/14/14 17/17/17
f 17/17/17 14/14/14 18/18/18
f 19/19/19 21/21/21 20/20/20
f 19/19/19 22/22/22 21/21/21
f 23/23/23 25/25/25 24/24/24
f 23/23/23 26/26/26 25/25/25
f 27/27/27 29/29/29 28/28/28
f 27/27/27 30/30/30 29/29/29
