#Cube.039.obj

v 0.0001136698 -0.002062224 -0.002046315
v 0.0001136742 0.005462649 -0.001377485
v -0.0001136701 0.005507408 -0.0013424
v -0.0001136716 -0.001900068 -0.002000795
v -0.0001136701 0.005507408 -0.0013424
v -0.0001136718 0.0004063112 0.00292801
v -0.0001136724 -0.003896457 0.0005924676
v -0.0001136716 -0.001900068 -0.002000795
v 0.0001136724 0.0004475948 0.002820895
v 0.0001136693 -0.003965213 0.0004256236
v -0.0001136724 -0.003896457 0.0005924676
v -0.0001136718 0.0004063112 0.00292801
v 0.0001136724 0.0004475948 0.002820895
v 0.0001136742 0.005462649 -0.001377485
v 0.0001136698 -0.002062224 -0.002046315
v 0.0001136693 -0.003965213 0.0004256236
v 0.0001136693 -0.003965213 0.0004256236
v 0.0001136698 -0.002062224 -0.002046315
v -0.0001136716 -0.001900068 -0.002000795
v -0.0001136724 -0.003896457 0.0005924676
v -0.0001136718 0.0004063112 0.00292801
v -0.0001136701 0.005507408 -0.0013424
v 0.0001136742 0.005462649 -0.001377485
v 0.0001136724 0.0004475948 0.002820895

vn 0.4221067 -0.4625442 -0.7796659
vn 0.5859906 0.7341287 -0.3430308
vn -0.487764 0.8557081 -0.1727714
vn -0.7377409 -0.1584557 -0.6562241
vn -1 2.107796E-07 -1.488376E-07
vn -1 2.107796E-07 -1.488376E-07
vn -1 2.107796E-07 -1.488376E-07
vn -1 2.107796E-07 -1.488376E-07
vn 0.7465643 0.1274488 0.652992
vn 0.4367315 -0.8976954 -0.05838346
vn -0.5172721 -0.738232 0.4329472
vn -0.4345078 0.03564691 0.8999624
vn 1 -5.655326E-07 -2.40305E-07
vn 1 -5.655326E-07 -2.40305E-07
vn 1 -5.655326E-07 -2.40305E-07
vn 1 -5.655326E-07 -2.40305E-07
vn 0.4367315 -0.8976954 -0.05838346
vn 0.4221067 -0.4625442 -0.7796659
vn -0.7377409 -0.1584557 -0.6562241
vn -0.5172721 -0.738232 0.4329472
vn -0.4345078 0.03564691 0.8999624
vn -0.487764 0.8557081 -0.1727714
vn 0.5859906 0.7341287 -0.3430308
vn 0.7465643 0.1274488 0.652992

vt 0.4065215 0.4846236
vt 0.5530487 0.505202
vt 0.5533487 0.5097822
vt 0.4091075 0.4895247
vt 0 0
vt 0 0
vt 0 0
vt 0 0
vt 0.5062138 0.4623459
vt 0.4943991 0.6095356
vt 0.4872752 0.6048325
vt 0.4987954 0.4613133
vt 0 0
vt 0 0
vt 0 0
vt 0 0
vt 0.5517595 0.4043229
vt 0.5242789 0.4576508
vt 0.5190095 0.456295
vt 0.5478388 0.4003497
vt 0.4406983 0.4383217
vt 0.5280219 0.5350314
vt 0.5312694 0.5317877
vt 0.4454187 0.4367092

g Cube.039
usemtl Cube.039
usemap Cube.039
f 1/1/1 3/3/3 2/2/2
f 1/1/1 4/4/4 3/3/3
f 5/5/5 7/7/7 6/6/6
f 5/5/5 8/8/8 7/7/7
f 9/9/9 11/11/11 10/10/10
f 9/9/9 12/12/12 11/11/11
f 13/13/13 15/15/15 14/14/14
f 13/13/13 16/16/16 15/15/15
f 17/17/17 19/19/19 18/18/18
f 17/17/17 20/20/20 19/19/19
f 21/21/21 23/23/23 22/22/22
f 21/21/21 24/24/24 23/23/23
