#Cube.023.obj

v 0.0001136735 -0.002041663 -0.006789768
v -0.0001136711 -0.002041661 -0.006789768
v -0.0001136729 -0.002041659 0.008471925
v 0.0001136684 -0.002041667 0.008686429
v -0.0001136711 -0.002041661 -0.006789768
v -0.0001136706 0.000363961 -0.006789768
v -0.0001136713 0.003463759 0.00497627
v -0.0001136729 -0.002041659 0.008471925
v -0.0001136706 0.000363961 -0.006789768
v -0.0001136711 -0.002041661 -0.006789768
v 0.0001136735 -0.002041663 -0.006789768
v 0.0001136735 0.0006132214 -0.006789768
v -0.0001136706 0.000363961 -0.006789768
v 0.0001136735 0.0006132214 -0.006789768
v 0.0001136705 0.003725708 0.005024445
v -0.0001136713 0.003463759 0.00497627
v 0.0001136735 0.0006132214 -0.006789768
v 0.0001136735 -0.002041663 -0.006789768
v 0.0001136684 -0.002041667 0.008686429
v 0.0001136705 0.003725708 0.005024445
v 0.0001136705 0.003725708 0.005024445
v 0.0001136684 -0.002041667 0.008686429
v -0.0001136729 -0.002041659 0.008471925
v -0.0001136713 0.003463759 0.00497627

vn -2.157948E-05 -1 -1.037347E-07
vn -2.157948E-05 -1 -1.037347E-07
vn -2.157948E-05 -1 -1.037347E-07
vn -2.157948E-05 -1 -1.037347E-07
vn -1 2.338118E-07 -1.192486E-07
vn -1 2.338118E-07 -1.192486E-07
vn -1 2.338118E-07 -1.192486E-07
vn -1 2.338118E-07 -1.192486E-07
vn 2.973093E-06 0 -1
vn 2.973093E-06 0 -1
vn 2.973093E-06 0 -1
vn 2.973093E-06 0 -1
vn -0.711528 0.2301769 -0.6638874
vn 0.3297918 0.7028905 -0.630224
vn 0.2696669 0.9094391 0.3165443
vn -0.8846696 0.4160728 0.2103406
vn 1 -1.142705E-07 3.078364E-07
vn 1 -1.142705E-07 3.078364E-07
vn 1 -1.142705E-07 3.078364E-07
vn 1 -1.142705E-07 3.078364E-07
vn 0.2696669 0.9094391 0.3165443
vn 0.294081 -0.3534099 0.8880416
vn -0.7454342 -0.5075668 0.4320924
vn -0.8846696 0.4160728 0.2103406

vt 0 0
vt 0 0
vt 0 0
vt 0 0
vt 0 0
vt 0 0
vt 0 0
vt 0 0
vt 0 0
vt 0 0
vt 0 0
vt 0 0
vt 0.5944355 0.36469
vt 0.5866931 0.3614727
vt 0.4194883 0.6149114
vt 0.4279124 0.6170953
vt 0 0
vt 0 0
vt 0 0
vt 0 0
vt 0.5104962 0.4872127
vt 0.4138702 0.5762298
vt 0.4192836 0.5788423
vt 0.5115207 0.4938684

g Cube.023
usemtl Cube.023
usemap Cube.023
f 1/1/1 3/3/3 2/2/2
f 1/1/1 4/4/4 3/3/3
f 5/5/5 7/7/7 6/6/6
f 5/5/5 8/8/8 7/7/7
f 9/9/9 11/11/11 10/10/10
f 9/9/9 12/12/12 11/11/11
f 13/13/13 15/15/15 14/14/14
f 13/13/13 16/16/16 15/15/15
f 17/17/17 19/19/19 18/18/18
f 17/17/17 20/20/20 19/19/19
f 21/21/21 23/23/23 22/22/22
f 21/21/21 24/24/24 23/23/23
