#Cube.029.obj

v 0.0001136703 0.003954976 -0.0006455383
v -0.0001136696 0.00395498 -0.0006455383
v -0.000113671 -0.001963125 -0.0006455383
v 0.0001136703 -0.009699015 -0.0006455383
v 0.0001136703 0.003954976 -0.0006455383
v 0.0001136703 -0.009699015 -0.0006455383
v 0.0001136703 -0.009650322 -0.0006053859
v 0.00011367 0.002725285 0.001314814
v 0.0001136704 0.003954976 -0.0002825257
v -0.0001136697 0.00395498 -2.637595E-05
v -0.0001136696 0.00395498 -0.0006455383
v 0.0001136703 0.003954976 -0.0006455383
v 0.0001136704 0.003954976 -0.0002825257
v 0.0001136703 -0.009699015 -0.0006455383
v -0.000113671 -0.001963125 -0.0006455383
v -0.0001136708 -0.0001450622 0.0008536204
v 0.0001136703 -0.009650322 -0.0006053859
v -0.0001136708 -0.0001450622 0.0008536204
v -0.000113671 -0.001963125 -0.0006455383
v -0.0001136696 0.00395498 -0.0006455383
v -0.0001136701 0.002912327 0.001328005
v -0.0001136697 0.00395498 -2.637595E-05
v -0.0001136701 0.002912327 0.001328005
v -0.0001136697 0.00395498 -2.637595E-05
v 0.0001136704 0.003954976 -0.0002825257
v 0.00011367 0.002725285 0.001314814
v 0.0001136703 -0.009650322 -0.0006053859
v -0.0001136708 -0.0001450622 0.0008536204
v -0.0001136701 0.002912327 0.001328005
v 0.00011367 0.002725285 0.001314814

vn 0 0 -1
vn 0 0 -1
vn 0 0 -1
vn 0 0 -1
vn 1 0 1.059694E-07
vn 1 0 1.059694E-07
vn 1 0 1.059694E-07
vn 1 0 1.059694E-07
vn 1 0 1.059694E-07
vn 1.573097E-05 1 0
vn 1.573097E-05 1 0
vn 1.573097E-05 1 0
vn 1.573097E-05 1 0
vn 0.01016292 -0.9728934 -0.2310309
vn -0.7199072 -0.01648013 -0.6938747
vn -0.7312144 -0.1073062 0.6736549
vn 0.02298102 -0.5676893 0.8229221
vn -1 2.401399E-07 -1.317675E-07
vn -1 2.401399E-07 -1.317675E-07
vn -1 2.401399E-07 -1.317675E-07
vn -1 2.401399E-07 -1.317675E-07
vn -1 2.401399E-07 -1.317675E-07
vn -0.4341955 0.4696282 0.7687156
vn -0.4530266 0.7935899 0.4061796
vn 0.7015411 0.7041658 0.1095023
vn 0.6720418 0.1150284 0.7315246
vn 0.02298102 -0.5676893 0.8229221
vn -0.7312144 -0.1073062 0.6736549
vn -0.4341955 0.4696282 0.7687156
vn 0.6720418 0.1150284 0.7315246

vt 0 0
vt 0 0
vt 0 0
vt 0 0
vt 0 0
vt 0 0
vt 0 0
vt 0 0
vt 0 0
vt 0 0
vt 0 0
vt 0 0
vt 0 0
vt 0.6974261 0.3258048
vt 0.4903636 0.3889285
vt 0.4539779 0.4438861
vt 0.6964516 0.3272768
vt 0 0
vt 0 0
vt 0 0
vt 0 0
vt 0 0
vt 0.3976486 0.6918039
vt 0.382592 0.7210225
vt 0.3855198 0.7269223
vt 0.4032775 0.6924623
vt 0.1912409 0.5773867
vt 0.4549567 0.5151401
vt 0.539281 0.493115
vt 0.5325661 0.4882345

g Cube.029
usemtl Cube.029
usemap Cube.029
f 1/1/1 3/3/3 2/2/2
f 1/1/1 4/4/4 3/3/3
f 5/5/5 7/7/7 6/6/6
f 7/7/7 5/5/5 8/8/8
f 8/8/8 5/5/5 9/9/9
f 10/10/10 12/12/12 11/11/11
f 10/10/10 13/13/13 12/12/12
f 14/14/14 16/16/16 15/15/15
f 14/14/14 17/17/17 16/16/16
f 18/18/18 20/20/20 19/19/19
f 20/20/20 18/18/18 21/21/21
f 20/20/20 21/21/21 22/22/22
f 23/23/23 25/25/25 24/24/24
f 23/23/23 26/26/26 25/25/25
f 27/27/27 29/29/29 28/28/28
f 27/27/27 30/30/30 29/29/29
