#Cube.041.obj

v 0.0001136708 -0.003370664 0.001378566
v 0.0001136724 0.0008668636 -0.002168904
v -0.0001136718 0.001245326 -0.00241318
v -0.0001136733 -0.003283996 0.001378565
v 0.0001136708 -0.003370664 0.001378566
v 0.0001136722 -0.0008394153 0.001378566
v 0.0001136739 0.002892408 -0.0003669554
v 0.0001136724 0.0008668636 -0.002168904
v 0.0001136722 -0.0008394153 0.001378566
v -0.0001136728 -0.0008331127 0.001378565
v -0.0001136716 0.003322591 -0.0005652219
v 0.0001136739 0.002892408 -0.0003669554
v 0.0001136722 -0.0008394153 0.001378566
v 0.0001136708 -0.003370664 0.001378566
v -0.0001136733 -0.003283996 0.001378565
v -0.0001136728 -0.0008331127 0.001378565
v -0.0001136716 0.003322591 -0.0005652219
v -0.0001136718 0.001245326 -0.00241318
v 0.0001136724 0.0008668636 -0.002168904
v 0.0001136739 0.002892408 -0.0003669554
v -0.0001136716 0.003322591 -0.0005652219
v -0.0001136728 -0.0008331127 0.001378565
v -0.0001136733 -0.003283996 0.001378565
v -0.0001136718 0.001245326 -0.00241318

vn 0.4194556 -0.8693082 0.2614578
vn 0.6366088 -0.3509756 -0.6866916
vn -0.2173875 0.2467469 -0.9443827
vn -0.6637157 -0.6729327 0.3265626
vn 1 -5.639329E-07 -2.342478E-07
vn 1 -5.639329E-07 -2.342478E-07
vn 1 -5.639329E-07 -2.342478E-07
vn 1 -5.639329E-07 -2.342478E-07
vn 0.6635502 0.1596158 0.7309062
vn -0.6590921 0.1659328 0.7335284
vn -0.1669995 0.985761 -0.01965418
vn 0.761609 0.4545543 0.461879
vn -2.918964E-06 0 1
vn -2.918964E-06 0 1
vn -2.918964E-06 0 1
vn -2.918964E-06 0 1
vn -0.1669995 0.985761 -0.01965418
vn -0.2173875 0.2467469 -0.9443827
vn 0.6366088 -0.3509756 -0.6866916
vn 0.761609 0.4545543 0.461879
vn -1 2.127678E-07 -1.48434E-07
vn -1 2.127678E-07 -1.48434E-07
vn -1 2.127678E-07 -1.48434E-07
vn -1 2.127678E-07 -1.48434E-07

vt 0.3986306 0.3848919
vt 0.4711711 0.4652296
vt 0.4736361 0.4747998
vt 0.3961004 0.3889301
vt 0 0
vt 0 0
vt 0 0
vt 0 0
vt 0.3514499 0.3749973
vt 0.3460431 0.3820625
vt 0.4857818 0.4946734
vt 0.4769352 0.4761219
vt 0 0
vt 0 0
vt 0 0
vt 0 0
vt 0.5131148 0.4814823
vt 0.4149048 0.5282078
vt 0.4188866 0.5475397
vt 0.5146513 0.5019776
vt 0 0
vt 0 0
vt 0 0
vt 0 0

g Cube.041
usemtl Cube.041
usemap Cube.041
f 1/1/1 3/3/3 2/2/2
f 1/1/1 4/4/4 3/3/3
f 5/5/5 7/7/7 6/6/6
f 5/5/5 8/8/8 7/7/7
f 9/9/9 11/11/11 10/10/10
f 9/9/9 12/12/12 11/11/11
f 13/13/13 15/15/15 14/14/14
f 13/13/13 16/16/16 15/15/15
f 17/17/17 19/19/19 18/18/18
f 17/17/17 20/20/20 19/19/19
f 21/21/21 23/23/23 22/22/22
f 21/21/21 24/24/24 23/23/23
