#Cube.042.obj

v -0.0001136715 0.00218988 -0.003877901
v -0.0001136722 0.002189879 0.0008686348
v -0.0001136731 -0.0009490828 0.002336851
v -0.0001136733 -0.003026348 0.000488893
v -0.0001136722 0.002189879 0.0008686348
v -0.0001136715 0.00218988 -0.003877901
v 0.0001136729 0.002189876 -0.003950453
v 0.000113674 0.002189874 0.0008656894
v -0.0001136731 -0.0009490828 0.002336851
v 0.0001136724 -0.001379266 0.002535118
v 0.0001136708 -0.00340481 0.0007331694
v -0.0001136733 -0.003026348 0.000488893
v 0.0001136724 -0.001379266 0.002535118
v 0.000113674 0.002189874 0.0008656894
v 0.0001136729 0.002189876 -0.003950453
v 0.0001136708 -0.00340481 0.0007331694
v 0.0001136708 -0.00340481 0.0007331694
v 0.0001136729 0.002189876 -0.003950453
v -0.0001136715 0.00218988 -0.003877901
v -0.0001136733 -0.003026348 0.000488893
v -0.0001136731 -0.0009490828 0.002336851
v -0.0001136722 0.002189879 0.0008686348
v 0.000113674 0.002189874 0.0008656894
v 0.0001136724 -0.001379266 0.002535118

vn -1 2.071327E-07 -1.491726E-07
vn -1 2.071327E-07 -1.491726E-07
vn -1 2.071327E-07 -1.491726E-07
vn -1 2.071327E-07 -1.491726E-07
vn 1.839376E-05 1 2.141926E-07
vn 1.839376E-05 1 2.141926E-07
vn 1.839376E-05 1 2.141926E-07
vn 1.839376E-05 1 2.141926E-07
vn -0.7131216 0.1826294 0.6768338
vn 0.2230063 -0.3456034 0.9114968
vn 0.1799083 -0.9737633 0.1393488
vn -0.815662 -0.4938652 -0.3013182
vn 1 -5.675442E-07 -2.378838E-07
vn 1 -5.675442E-07 -2.378838E-07
vn 1 -5.675442E-07 -2.378838E-07
vn 1 -5.675442E-07 -2.378838E-07
vn 0.1799083 -0.9737633 0.1393488
vn 0.4450623 0.3293943 -0.8327178
vn -0.645997 0.388355 -0.6571668
vn -0.815662 -0.4938652 -0.3013182
vn -0.7131216 0.1826294 0.6768338
vn -0.6012902 0.6725526 0.43142
vn 0.6065128 0.6724043 0.4242812
vn 0.2230063 -0.3456034 0.9114968

vt 0 0
vt 0 0
vt 0 0
vt 0 0
vt 0 0
vt 0 0
vt 0 0
vt 0 0
vt 0.5131148 0.4814823
vt 0.5146513 0.5019776
vt 0.4188866 0.5475397
vt 0.4149048 0.5282078
vt 0 0
vt 0 0
vt 0 0
vt 0 0
vt 0.4711711 0.4652296
vt 0.5669443 0.571297
vt 0.5629306 0.5736923
vt 0.4736361 0.4747998
vt 0.4857818 0.4946734
vt 0.5913317 0.5797328
vt 0.5969502 0.5728381
vt 0.4769352 0.4761219

g Cube.042
usemtl Cube.042
usemap Cube.042
f 1/1/1 3/3/3 2/2/2
f 1/1/1 4/4/4 3/3/3
f 5/5/5 7/7/7 6/6/6
f 5/5/5 8/8/8 7/7/7
f 9/9/9 11/11/11 10/10/10
f 9/9/9 12/12/12 11/11/11
f 13/13/13 15/15/15 14/14/14
f 13/13/13 16/16/16 15/15/15
f 17/17/17 19/19/19 18/18/18
f 17/17/17 20/20/20 19/19/19
f 21/21/21 23/23/23 22/22/22
f 21/21/21 24/24/24 23/23/23
