#Cube.035.obj

v 0.0001136691 -0.004349164 0.002181968
v -0.0001136723 -0.004187009 0.002227488
v -0.0001136709 0.002892519 0.002856734
v 0.0001136734 0.003008296 0.002835917
v 0.0001136691 -0.004349164 0.002181968
v 0.0001136706 0.001344135 -0.005213497
v -0.0001136701 0.001291224 -0.004888611
v -0.0001136723 -0.004187009 0.002227488
v 0.0001136734 0.003008296 0.002835917
v -0.0001136709 0.002892519 0.002856734
v -0.0001136701 0.001291224 -0.004888611
v 0.0001136706 0.001344135 -0.005213497
v -0.0001136709 0.002892519 0.002856734
v -0.0001136723 -0.004187009 0.002227488
v -0.0001136701 0.001291224 -0.004888611
v 0.0001136706 0.001344135 -0.005213497
v 0.0001136691 -0.004349164 0.002181968
v 0.0001136734 0.003008296 0.002835917

vn 0.3467581 -0.9063564 0.2414061
vn -0.679543 -0.5380554 0.498716
vn -0.6369075 0.440943 0.6323907
vn 0.4288581 0.7577958 0.4917585
vn 0.3467581 -0.9063564 0.2414061
vn 0.2074678 0.2018218 -0.9571964
vn -0.8870479 0.1527804 -0.4356652
vn -0.679543 -0.5380554 0.498716
vn 0.4288581 0.7577958 0.4917585
vn -0.6369075 0.440943 0.6323907
vn -0.8870479 0.1527804 -0.4356652
vn 0.2074678 0.2018218 -0.9571964
vn -1 2.076305E-07 -1.490772E-07
vn -1 2.076305E-07 -1.490772E-07
vn -1 2.076305E-07 -1.490772E-07
vn 1 -5.675088E-07 -2.381486E-07
vn 1 -5.675088E-07 -2.381486E-07
vn 1 -5.675088E-07 -2.381486E-07

vt 0.4065215 0.4846236
vt 0.4091075 0.4895247
vt 0.5469627 0.5088853
vt 0.5497888 0.5047442
vt 0.5242789 0.4576508
vt 0.4420634 0.6171956
vt 0.4398997 0.609813
vt 0.5190095 0.456295
vt 0.5262454 0.4225941
vt 0.5190527 0.4205902
vt 0.4544877 0.642076
vt 0.4591455 0.652775
vt 0 0
vt 0 0
vt 0 0
vt 0 0
vt 0 0
vt 0 0

g Cube.035
usemtl Cube.035
usemap Cube.035
f 1/1/1 3/3/3 2/2/2
f 1/1/1 4/4/4 3/3/3
f 5/5/5 7/7/7 6/6/6
f 5/5/5 8/8/8 7/7/7
f 9/9/9 11/11/11 10/10/10
f 9/9/9 12/12/12 11/11/11
f 13/13/13 15/15/15 14/14/14
f 16/16/16 18/18/18 17/17/17
