#Cube.026.obj

v -0.0001136696 0.004785989 -0.0007881374
v -0.0001136694 0.003685542 -0.004592027
v 0.0001136725 0.003555581 -0.004295009
v 0.0001136718 0.004575209 -0.0007704957
v 0.0001136725 0.003555581 -0.004295009
v 0.0001136692 -0.005506332 0.001458836
v 0.000113669 -0.005506332 0.002099825
v 0.0001136713 0.002604294 0.001789678
v 0.0001136718 0.004575209 -0.0007704957
v 0.0001136725 0.003555581 -0.004295009
v -0.0001136694 0.003685542 -0.004592027
v -0.0001136722 -0.005506325 0.001244332
v 0.0001136692 -0.005506332 0.001458836
v -0.0001136723 -0.005506324 0.002085671
v -0.0001136722 -0.005506325 0.001244332
v -0.0001136694 0.003685542 -0.004592027
v -0.0001136704 0.0028187 0.001767326
v -0.0001136696 0.004785989 -0.0007881374
v -0.0001136722 -0.005506325 0.001244332
v -0.0001136723 -0.005506324 0.002085671
v 0.000113669 -0.005506332 0.002099825
v 0.0001136692 -0.005506332 0.001458836
v -0.0001136723 -0.005506324 0.002085671
v -0.0001136704 0.0028187 0.001767326
v 0.0001136713 0.002604294 0.001789678
v 0.000113669 -0.005506332 0.002099825
v -0.0001136704 0.0028187 0.001767326
v -0.0001136696 0.004785989 -0.0007881374
v 0.0001136718 0.004575209 -0.0007704957
v 0.0001136713 0.002604294 0.001789678

vn -0.3318044 0.9333066 0.1372752
vn -0.2165661 0.3575355 -0.9084423
vn 0.8973954 0.132302 -0.420925
vn 0.8634568 0.4873959 0.1299519
vn 1 -2.306762E-07 1.677395E-07
vn 1 -2.306762E-07 1.677395E-07
vn 1 -2.306762E-07 1.677395E-07
vn 1 -2.306762E-07 1.677395E-07
vn 1 -2.306762E-07 1.677395E-07
vn 0.8973954 0.132302 -0.420925
vn -0.2165661 0.3575355 -0.9084423
vn -0.4061526 -0.7175728 -0.5657997
vn 0.7003579 -0.6875703 -0.191692
vn -1 2.252728E-07 -1.281098E-07
vn -1 2.252728E-07 -1.281098E-07
vn -1 2.252728E-07 -1.281098E-07
vn -1 2.252728E-07 -1.281098E-07
vn -1 2.252728E-07 -1.281098E-07
vn -3.559669E-05 -1 0
vn -3.559669E-05 -1 0
vn -3.559669E-05 -1 0
vn -3.559669E-05 -1 0
vn -0.591615 -0.5708008 0.5693665
vn -0.4448838 0.5353438 0.7179731
vn 0.6767665 0.1963004 0.7095444
vn 0.5584062 -0.5637166 0.60861
vn -0.4448838 0.5353438 0.7179731
vn -0.3318044 0.9333066 0.1372752
vn 0.8634568 0.4873959 0.1299519
vn 0.6767665 0.1963004 0.7095444

vt 0.5453433 0.4533066
vt 0.4895741 0.5051604
vt 0.4971133 0.506231
vt 0.5487865 0.4581856
vt 0 0
vt 0 0
vt 0 0
vt 0 0
vt 0 0
vt 0.5656925 0.4363628
vt 0.5732831 0.4369696
vt 0.4192836 0.5788423
vt 0.4138702 0.5762298
vt 0 0
vt 0 0
vt 0 0
vt 0 0
vt 0 0
vt 0 0
vt 0 0
vt 0 0
vt 0 0
vt 0.5836667 0.303283
vt 0.4592468 0.5795749
vt 0.4700134 0.5758431
vt 0.591229 0.3066666
vt 0.5511873 0.3938516
vt 0.5227782 0.4489815
vt 0.5287498 0.4489746
vt 0.5572113 0.3937432

g Cube.026
usemtl Cube.026
usemap Cube.026
f 1/1/1 3/3/3 2/2/2
f 1/1/1 4/4/4 3/3/3
f 5/5/5 7/7/7 6/6/6
f 7/7/7 5/5/5 8/8/8
f 8/8/8 5/5/5 9/9/9
f 10/10/10 12/12/12 11/11/11
f 10/10/10 13/13/13 12/12/12
f 14/14/14 16/16/16 15/15/15
f 16/16/16 14/14/14 17/17/17
f 16/16/16 17/17/17 18/18/18
f 19/19/19 21/21/21 20/20/20
f 19/19/19 22/22/22 21/21/21
f 23/23/23 25/25/25 24/24/24
f 23/23/23 26/26/26 25/25/25
f 27/27/27 29/29/29 28/28/28
f 27/27/27 30/30/30 29/29/29
