#Cylinder.013.obj

v -0.003163855 -0.001754915 -0.000149945
v 0.003945627 -0.001754916 -0.000149945
v 0.0009812813 0.002137139 -0.000150067
v -0.001859656 0.0008974619 -0.0001500281
v -0.00142748 0.001532363 0.0001499519
v -0.003043867 -0.001754915 0.000150055
v -0.003163855 -0.001754915 -0.000149945
v -0.001859656 0.0008974619 -0.0001500281
v 0.003945627 -0.001754916 -0.000149945
v 0.003886319 -0.001754916 0.000150055
v 0.0006816303 0.002452697 0.0001499231
v 0.0009812813 0.002137139 -0.000150067
v 0.003886319 -0.001754916 0.000150055
v -0.003043867 -0.001754915 0.000150055
v -0.00142748 0.001532363 0.0001499519
v 0.0006816303 0.002452697 0.0001499231
v 0.003945627 -0.001754916 -0.000149945
v -0.003163855 -0.001754915 -0.000149945
v -0.003043867 -0.001754915 0.000150055
v 0.003886319 -0.001754916 0.000150055
v 0.0006816303 0.002452697 0.0001499231
v -0.00142748 0.001532363 0.0001499519
v -0.001859656 0.0008974619 -0.0001500281
v 0.0009812813 0.002137139 -0.000150067

vn 0 -3.13506E-05 -1
vn 0 -3.13506E-05 -1
vn 0 -3.13506E-05 -1
vn 0 -3.13506E-05 -1
vn -0.4958177 0.8116017 0.3089781
vn -0.5725959 -0.4807034 0.6641222
vn -0.8032635 -0.4100551 -0.4319983
vn -0.6983415 0.4229663 -0.5774242
vn 0.7991599 -0.3540598 -0.485783
vn 0.6871799 -0.3911089 0.6122236
vn 0.02942027 0.9578983 0.2855963
vn 0.45409 0.5963383 -0.6619539
vn 0 3.135102E-05 1
vn 0 3.135102E-05 1
vn 0 3.135102E-05 1
vn 0 3.135102E-05 1
vn 0 -1 -3.427313E-07
vn 0 -1 -3.427313E-07
vn 0 -1 -3.427313E-07
vn 0 -1 -3.427313E-07
vn 0.02942027 0.9578983 0.2855963
vn -0.4958177 0.8116017 0.3089781
vn -0.6983415 0.4229663 -0.5774242
vn 0.45409 0.5963383 -0.6619539

vt 0 0
vt 0 0
vt 0 0
vt 0 0
vt 0.5317913 0.5314962
vt 0.5570478 0.6086403
vt 0.5507004 0.6119528
vt 0.5303218 0.5497081
vt 0.4293037 0.4801347
vt 0.4277053 0.4882455
vt 0.5637647 0.5321792
vt 0.555159 0.5207736
vt 0 0
vt 0 0
vt 0 0
vt 0 0
vt 0 0
vt 0 0
vt 0 0
vt 0 0
vt 0.5053185 0.5776022
vt 0.4527403 0.6108463
vt 0.4305597 0.6086465
vt 0.5013818 0.5638673

g Cylinder.013
usemtl Cylinder.013
usemap Cylinder.013
f 1/1/1 3/3/3 2/2/2
f 1/1/1 4/4/4 3/3/3
f 5/5/5 7/7/7 6/6/6
f 5/5/5 8/8/8 7/7/7
f 9/9/9 11/11/11 10/10/10
f 9/9/9 12/12/12 11/11/11
f 13/13/13 15/15/15 14/14/14
f 13/13/13 16/16/16 15/15/15
f 17/17/17 19/19/19 18/18/18
f 17/17/17 20/20/20 19/19/19
f 21/21/21 23/23/23 22/22/22
f 21/21/21 24/24/24 23/23/23
