#Cylinder.017.obj

v -0.0005955099 0.004371214 -0.000150137
v -0.0005795066 -0.002229163 -0.0001499301
v 0.001066553 -0.001968739 -0.0001499383
v 0.001283564 -0.00235021 0.0001500737
v 0.001066553 -0.001968739 -0.0001499383
v -0.0005795066 -0.002229163 -0.0001499301
v -0.0005784988 -0.002644809 0.0001500829
v 0.001283564 -0.00235021 0.0001500737
v -0.0005966022 0.004821705 0.0001498488
v -0.0005955099 0.004371214 -0.000150137
v 0.001066553 -0.001968739 -0.0001499383
v -0.0005784988 -0.002644809 0.0001500829
v -0.0005966022 0.004821705 0.0001498488
v 0.001283564 -0.00235021 0.0001500737
v -0.0005795066 -0.002229163 -0.0001499301
v -0.0005955099 0.004371214 -0.000150137
v -0.0005966022 0.004821705 0.0001498488
v -0.0005784988 -0.002644809 0.0001500829

vn 0 -3.135274E-05 -1
vn 0 -3.135274E-05 -1
vn 0 -3.135274E-05 -1
vn 0.7466838 -0.6256445 0.2259035
vn 0.5296646 -0.1080388 -0.8412985
vn -0.6236938 -0.2627412 -0.7361882
vn -0.4880627 -0.837141 0.2469612
vn 0.7466838 -0.6256445 0.2259035
vn -0.08942129 0.976218 0.1974898
vn -0.2167167 0.4482048 -0.8672637
vn 0.5296646 -0.1080388 -0.8412985
vn 0 3.135169E-05 1
vn 0 3.135169E-05 1
vn 0 3.135169E-05 1
vn -0.9999971 -0.002424587 1.187924E-07
vn -0.9999971 -0.002424587 1.187924E-07
vn -0.9999971 -0.002424587 1.187924E-07
vn -0.9999971 -0.002424587 1.187924E-07

vt 0 0
vt 0 0
vt 0 0
vt 0.5139722 0.4621435
vt 0.4976922 0.4650234
vt 0.4914757 0.5164759
vt 0.5069398 0.5203478
vt 0.511797 0.5203543
vt 0.6871396 0.5938154
vt 0.6800046 0.5819123
vt 0.5250021 0.5169728
vt 0 0
vt 0 0
vt 0 0
vt 0 0
vt 0 0
vt 0 0
vt 0 0

g Cylinder.017
usemtl Cylinder.017
usemap Cylinder.017
f 1/1/1 3/3/3 2/2/2
f 4/4/4 6/6/6 5/5/5
f 4/4/4 7/7/7 6/6/6
f 8/8/8 10/10/10 9/9/9
f 8/8/8 11/11/11 10/10/10
f 12/12/12 14/14/14 13/13/13
f 15/15/15 17/17/17 16/16/16
f 15/15/15 18/18/18 17/17/17
