#Cylinder.obj

v -0.006958182 0.01301735 -0.01
v 0.01301286 -0.006975013 -0.01
v 0.01301286 -0.006975013 0.01
v -0.006958182 0.01301735 0.01
v 0.01301286 -0.006975013 -0.01
v -0.006995097 -0.006975012 -0.01
v -0.006995097 -0.006975012 0.01
v 0.01301286 -0.006975013 0.01
v 0.01301286 -0.006975013 0.01
v -0.006995097 -0.006975012 0.01
v -0.006958182 0.01301735 0.01
v -0.006995097 -0.006975012 -0.01
v -0.006958182 0.01301735 -0.01
v -0.006958182 0.01301735 0.01
v -0.006995097 -0.006975012 0.01
v -0.006958182 0.01301735 -0.01
v -0.006995097 -0.006975012 -0.01
v 0.01301286 -0.006975013 -0.01

vn 0.7074839 0.7067295 0
vn 0.7074839 0.7067295 0
vn 0.7074839 0.7067295 0
vn 0.7074839 0.7067295 0
vn 0 -1 0
vn 0 -1 0
vn 0 -1 0
vn 0 -1 0
vn 0 0 1
vn 0 0 1
vn 0 0 1
vn -0.9999983 0.001846479 0
vn -0.9999983 0.001846479 0
vn -0.9999983 0.001846479 0
vn -0.9999983 0.001846479 0
vn 0 0 -1
vn 0 0 -1
vn 0 0 -1

g Cylinder
usemtl Cylinder
usemap Cylinder
f 1//1 3//3 2//2
f 1//1 4//4 3//3
f 5//5 7//7 6//6
f 5//5 8//8 7//7
f 9//9 11//11 10//10
f 12//12 14//14 13//13
f 12//12 15//15 14//14
f 16//16 18//18 17//17
