#Cylinder.011.obj

v 0.002357329 -0.0003387711 -0.0001499894
v -0.001904042 -0.002198272 -0.0001499311
v -0.001560053 -0.001601855 0.0001500502
v 0.002014165 -4.220466E-05 0.0001500013
v 0.002357329 -0.0003387711 -0.0001499894
v -0.0005135878 0.002142306 -0.0001500672
v -0.001904042 -0.002198272 -0.0001499311
v -0.001904042 -0.002198272 -0.0001499311
v -0.0005135878 0.002142306 -0.0001500672
v -0.0003938132 0.002038796 0.0001499361
v -0.001560053 -0.001601855 0.0001500502
v -0.0005135878 0.002142306 -0.0001500672
v 0.002357329 -0.0003387711 -0.0001499894
v 0.002014165 -4.220466E-05 0.0001500013
v -0.0003938132 0.002038796 0.0001499361
v -0.0003938132 0.002038796 0.0001499361
v 0.002014165 -4.220466E-05 0.0001500013
v -0.001560053 -0.001601855 0.0001500502

vn 0.9314236 -0.2928038 -0.2161389
vn -0.6153247 -0.7754276 -0.1417304
vn -0.3972134 -0.1297391 0.9085093
vn 0.6015561 0.2494607 0.7588806
vn 0 -3.135159E-05 -1
vn 0 -3.135159E-05 -1
vn 0 -3.135159E-05 -1
vn -0.6153247 -0.7754276 -0.1417304
vn -0.3392487 0.8519978 -0.3987607
vn -0.05639971 0.7240404 0.6874478
vn -0.3972134 -0.1297391 0.9085093
vn 0.6538689 0.7566079 2.614055E-07
vn 0.6538689 0.7566079 2.614055E-07
vn 0.6538689 0.7566079 2.614055E-07
vn 0.6538689 0.7566079 2.614055E-07
vn 0 3.135278E-05 1
vn 0 3.135278E-05 1
vn 0 3.135278E-05 1

vt 0.5937999 0.5054334
vt 0.4875677 0.5726016
vt 0.5075498 0.5761914
vt 0.5966519 0.5198541
vt 0 0
vt 0 0
vt 0 0
vt 0.604795 0.4247706
vt 0.3996606 0.5967854
vt 0.4150389 0.6094528
vt 0.587095 0.4651759
vt 0 0
vt 0 0
vt 0 0
vt 0 0
vt 0 0
vt 0 0
vt 0 0

g Cylinder.011
usemtl Cylinder.011
usemap Cylinder.011
f 1/1/1 3/3/3 2/2/2
f 1/1/1 4/4/4 3/3/3
f 5/5/5 7/7/7 6/6/6
f 8/8/8 10/10/10 9/9/9
f 8/8/8 11/11/11 10/10/10
f 12/12/12 14/14/14 13/13/13
f 12/12/12 15/15/15 14/14/14
f 16/16/16 18/18/18 17/17/17
