#Cylinder.020.obj

v 0.002745878 0.0003661723 -0.0001500115
v 0.00171463 -0.001731099 -0.0001499457
v 0.001850787 -0.001698217 0.0001500533
v 0.002830085 0.0002933998 0.0001499908
v 0.001964689 0.001041285 0.0001499674
v -0.003468267 0.001169141 0.0001499633
v -0.003588731 0.001182329 -0.0001500371
v 0.001952373 0.001051928 -0.000150033
v 0.00171463 -0.001731099 -0.0001499457
v 0.002745878 0.0003661723 -0.0001500115
v 0.001952373 0.001051928 -0.000150033
v -0.003588731 0.001182329 -0.0001500371
v -0.003054215 -0.0008565856 -0.0001499731
v 0.001964689 0.001041285 0.0001499674
v 0.002830085 0.0002933998 0.0001499908
v 0.001850787 -0.001698217 0.0001500533
v -0.003468267 0.001169141 0.0001499633
v -0.002947231 -0.0008183548 0.0001500256
v 0.001952373 0.001051928 -0.000150033
v 0.002745878 0.0003661723 -0.0001500115
v 0.002830085 0.0002933998 0.0001499908
v 0.001964689 0.001041285 0.0001499674
v -0.003054215 -0.0008565856 -0.0001499731
v -0.003588731 0.001182329 -0.0001500371
v -0.003468267 0.001169141 0.0001499633
v -0.002947231 -0.0008183548 0.0001500256
v -0.003054215 -0.0008565856 -0.0001499731
v -0.002947231 -0.0008183548 0.0001500256
v 0.001850787 -0.001698217 0.0001500533
v 0.00171463 -0.001731099 -0.0001499457

vn 0.7123209 0.2386305 -0.6600413
vn 0.2338648 -0.7644325 -0.6007913
vn 0.4925305 -0.693321 0.5260414
vn 0.8627525 0.09064257 0.4974355
vn 0.2828254 0.7099171 0.6450019
vn -0.5142479 0.5313387 0.6732223
vn -0.7487692 0.4982028 -0.4371941
vn 0.2711684 0.7265849 -0.6313021
vn 0 -3.135298E-05 -1
vn 0 -3.135298E-05 -1
vn 0 -3.135298E-05 -1
vn 0 -3.135298E-05 -1
vn 0 -3.135298E-05 -1
vn 0 3.135403E-05 1
vn 0 3.135403E-05 1
vn 0 3.135403E-05 1
vn 0 3.135403E-05 1
vn 0 3.135403E-05 1
vn 0.6538687 0.756608 -2.831777E-07
vn 0.6538687 0.756608 -2.831777E-07
vn 0.6538687 0.756608 -2.831777E-07
vn 0.6538687 0.756608 -2.831777E-07
vn -0.6278974 -0.6144385 -0.4777135
vn -0.7487692 0.4982028 -0.4371941
vn -0.5142479 0.5313387 0.6732223
vn -0.4380463 -0.5402256 0.7185205
vn -0.6278974 -0.6144385 -0.4777135
vn -0.4380463 -0.5402256 0.7185205
vn 0.4925305 -0.693321 0.5260414
vn 0.2338648 -0.7644325 -0.6007913

vt 0.4844025 0.4094511
vt 0.5005161 0.4586688
vt 0.5066109 0.4545847
vt 0.4913091 0.4078465
vt 0.6297973 0.449887
vt 0.492102 0.4927433
vt 0.4914099 0.5013012
vt 0.6318462 0.4575919
vt 0 0
vt 0 0
vt 0 0
vt 0 0
vt 0 0
vt 0 0
vt 0 0
vt 0 0
vt 0 0
vt 0 0
vt 0 0
vt 0 0
vt 0 0
vt 0 0
vt 0.5337739 0.5206479
vt 0.5836224 0.5415323
vt 0.5794211 0.548686
vt 0.5308298 0.5283282
vt 0.6042616 0.500312
vt 0.6000512 0.5134565
vt 0.3901689 0.5137832
vt 0.3956556 0.5006368

g Cylinder.020
usemtl Cylinder.020
usemap Cylinder.020
f 1/1/1 3/3/3 2/2/2
f 1/1/1 4/4/4 3/3/3
f 5/5/5 7/7/7 6/6/6
f 5/5/5 8/8/8 7/7/7
f 9/9/9 11/11/11 10/10/10
f 11/11/11 9/9/9 12/12/12
f 12/12/12 9/9/9 13/13/13
f 14/14/14 16/16/16 15/15/15
f 16/16/16 14/14/14 17/17/17
f 16/16/16 17/17/17 18/18/18
f 19/19/19 21/21/21 20/20/20
f 19/19/19 22/22/22 21/21/21
f 23/23/23 25/25/25 24/24/24
f 23/23/23 26/26/26 25/25/25
f 27/27/27 29/29/29 28/28/28
f 27/27/27 30/30/30 29/29/29
