#Cylinder.019.obj

v -0.0003265034 -0.004321143 0.0001501355
v -0.0004445459 -0.004317185 -0.0001498646
v -0.002252445 0.002579061 -0.0001500809
v -0.002145462 0.002617291 0.0001499179
v -0.002252445 0.002579061 -0.0001500809
v 0.0025164 0.001704548 -0.0001500534
v 0.002652557 0.001737429 0.0001499455
v -0.002145462 0.002617291 0.0001499179
v -0.002252445 0.002579061 -0.0001500809
v -0.0004445459 -0.004317185 -0.0001498646
v 0.0025164 0.001704548 -0.0001500534
v 0.0025164 0.001704548 -0.0001500534
v -0.0004445459 -0.004317185 -0.0001498646
v -0.0003265034 -0.004321143 0.0001501355
v 0.002652557 0.001737429 0.0001499455
v 0.002652557 0.001737429 0.0001499455
v -0.0003265034 -0.004321143 0.0001501355
v -0.002145462 0.002617291 0.0001499179

vn 0.1019646 -0.8489824 0.5184902
vn -0.2648452 -0.8234984 -0.5017045
vn -0.7266397 0.495912 -0.4754639
vn -0.4743942 0.6503999 0.593237
vn -0.7266397 0.495912 -0.4754639
vn 0.5986393 0.3564063 -0.7173601
vn 0.8307917 0.3797801 0.4068811
vn -0.4743942 0.6503999 0.593237
vn 0 -3.135324E-05 -1
vn 0 -3.135324E-05 -1
vn 0 -3.135324E-05 -1
vn 0.5986393 0.3564063 -0.7173601
vn -0.2648452 -0.8234984 -0.5017045
vn 0.1019646 -0.8489824 0.5184902
vn 0.8307917 0.3797801 0.4068811
vn 0 3.135213E-05 1
vn 0 3.135213E-05 1
vn 0 3.135213E-05 1

vt 0.3611953 0.4572586
vt 0.3651709 0.4500104
vt 0.5337739 0.5206479
vt 0.5308298 0.5283282
vt 0.6042616 0.500312
vt 0.3956556 0.5006368
vt 0.3901689 0.5137832
vt 0.6000512 0.5134565
vt 0 0
vt 0 0
vt 0 0
vt 0.5005161 0.4586688
vt 0.5467818 0.5999837
vt 0.5531596 0.5967641
vt 0.5066109 0.4545847
vt 0 0
vt 0 0
vt 0 0

g Cylinder.019
usemtl Cylinder.019
usemap Cylinder.019
f 1/1/1 3/3/3 2/2/2
f 1/1/1 4/4/4 3/3/3
f 5/5/5 7/7/7 6/6/6
f 5/5/5 8/8/8 7/7/7
f 9/9/9 11/11/11 10/10/10
f 12/12/12 14/14/14 13/13/13
f 12/12/12 15/15/15 14/14/14
f 16/16/16 18/18/18 17/17/17
